<svg width="65" height="65" xmlns="http://www.w3.org/2000/svg">

 <g>
  <title>background</title>
  <rect fill="none" id="canvas_background" height="67" width="67" y="-1" x="-1"/>
 </g>
 <g>
  <title>Layer 1</title>
  <path fill="#ffffff" id="svg_3" d="m63.5,54.9l-4.3,0l0,-17.3c0,-0.4 -0.3,-0.8 -0.8,-0.8s-0.8,0.3 -0.8,0.8l0,17.2l-28.3,0l0,-26.4l28.5,0l0,6.3c0,0.4 0.3,0.8 0.8,0.8s0.8,-0.3 0.8,-0.8l0,-7c0,0 0,0 0,0c0,0 0,0 0,0c0,-0.4 -0.3,-0.8 -0.8,-0.8l-29.3,0l0,-3.2c0,-0.4 -0.3,-0.8 -0.8,-0.8s-0.8,0.3 -0.8,0.8l0,4l0,27.2l-5.5,0l0,-9.2c0,-0.4 -0.3,-0.8 -0.8,-0.8l-8,0c-0.4,0 -0.8,0.3 -0.8,0.8l0,9.2l-5.3,0l0,-40.5l2.2,0l16,0l2.3,0l0,6.3c0,0.4 0.3,0.8 0.8,0.8s0.8,-0.3 0.8,-0.8l0,-7c0,-0.4 -0.3,-0.8 -0.8,-0.8l-2.3,0l0,-3.3c0,-0.4 -0.3,-0.8 -0.8,-0.8l-7.3,0l0,-5.2c0,-0.4 -0.3,-0.8 -0.8,-0.8s-0.8,0.3 -0.8,0.8l0,5.3l-7.1,0c-0.4,0 -0.8,0.3 -0.8,0.8l0,3.3l-2.2,0c-0.4,0 -0.8,0.3 -0.8,0.8l0,41.3l-4.2,0c-0.4,0 -0.8,0.3 -0.8,0.8s0.3,0.8 0.8,0.8l62,0c0.4,0 0.8,-0.3 0.8,-0.8s-0.4,-1 -0.8,-1zm-53.2,-44.5l14.5,0l0,2.5l-14.5,0l0,-2.5zm4,36l6.5,0l0,8.5l-6.5,0l0,-8.5z" class="st0"/>
  <path fill="#ffffff" id="svg_4" d="m54.218375,59.181625l-44,0c-0.4,0 -0.8,0.3 -0.8,0.8s0.3,0.8 0.8,0.8l44,0c0.4,0 0.8,-0.3 0.8,-0.8s-0.4,-0.8 -0.8,-0.8z" class="st0"/>
  <path fill="#ffffff" id="svg_5" d="m46.359188,62.759188l-6,0c-0.4,0 -0.8,0.3 -0.8,0.8s0.3,0.8 0.8,0.8l6,0c0.4,0 0.8,-0.3 0.8,-0.8s-0.4,-0.8 -0.8,-0.8z" class="st0"/>
  <path fill="#ffffff" id="svg_6" d="m36.218375,63.040812l-18,0c-0.4,0 -0.8,0.3 -0.8,0.8s0.3,0.8 0.8,0.8l18,0c0.4,0 0.8,-0.3 0.8,-0.8s-0.4,-0.8 -0.8,-0.8z" class="st0"/>
  <path fill="#ffffff" id="svg_7" d="m3.5,48.740812c0,0 0,0 0,0c0,0 0,0 0,0c-0.4,0.9 -1.1,1.6 -2,2c0,0 0,0 0,0c0,0 0,0 0,0c0.9,0.4 1.6,1.1 2,2c0,0 0,0 0,0c0,0 0,0 0,0c0.4,-0.9 1.1,-1.6 2,-2c0,0 0,0 0,0c0,0 0,0 0,0c-0.9,-0.4 -1.6,-1.1 -2,-2z" class="st0"/>
  <path fill="#ffffff" id="svg_8" d="m3.5,6.6c0,0 0,0 0,0c0,0 0,0 0,0c0.7,-1.3 1.7,-2.3 3,-3c0,0 0,0 0,0c0,0 0,0 0,0c-1.3,-0.6 -2.3,-1.7 -3,-3c0,0 0,0 0,0c0,0 0,0 0,0c-0.6,1.3 -1.7,2.3 -3,3c0,0 0,0 0,0c0,0 0,0 0,0c1.3,0.7 2.4,1.7 3,3z" class="st0"/>
  <path fill="#ffffff" id="svg_9" d="m50.5,4.6c0,0 0,0 0,0c0,0 0,0 0,0c0.2,-0.4 0.6,-0.8 1,-1c0,0 0,0 0,0c0,0 0,0 0,0c-0.4,-0.2 -0.8,-0.6 -1,-1c0,0 0,0 0,0c0,0 0,0 0,0c-0.2,0.4 -0.6,0.8 -1,1c0,0 0,0 0,0c0,0 0,0 0,0c0.4,0.2 0.8,0.6 1,1z" class="st0"/>
  <path fill="#ffffff" id="svg_10" d="m64.5,16.6c-1.3,-0.6 -2.3,-1.7 -3,-3c0,0 0,0 0,0c0,0 0,0 0,0c-0.6,1.3 -1.7,2.3 -3,3c0,0 0,0 0,0c0,0 0,0 0,0c1.3,0.6 2.3,1.7 3,3c0,0 0,0 0,0c0,0 0,0 0,0c0.6,-1.3 1.7,-2.3 3,-3c0,0 0,0 0,0c0,0 0,0 0,0z" class="st0"/>
  <path fill="#ffffff" id="svg_11" d="m25.3,18.740812c0,-0.4 -0.3,-0.8 -0.8,-0.8l-14,0c-0.4,0 -0.8,0.3 -0.8,0.8l0,4c0,0.4 0.3,0.8 0.8,0.8l14,0c0.4,0 0.8,-0.3 0.8,-0.8l0,-4zm-1.5,3.3l-12.5,0l0,-2.5l12.5,0l0,2.5z" class="st0"/>
  <path fill="#ffffff" id="svg_12" d="m25.3,27.6c0,-0.4 -0.3,-0.8 -0.8,-0.8l-14,0c-0.4,0 -0.8,0.3 -0.8,0.8l0,4c0,0.4 0.3,0.8 0.8,0.8l14,0c0.4,0 0.8,-0.3 0.8,-0.8l0,-4zm-1.5,3.3l-12.5,0l0,-2.5l12.5,0l0,2.5z" class="st0"/>
  <path fill="#ffffff" id="svg_13" d="m24.5,36.040812l-14,0c-0.4,0 -0.8,0.3 -0.8,0.8l0,4c0,0.4 0.3,0.8 0.8,0.8l14,0c0.4,0 0.8,-0.3 0.8,-0.8l0,-4c0,-0.5 -0.4,-0.8 -0.8,-0.8zm-0.7,4l-12.5,0l0,-2.5l12.5,0l0,2.5z" class="st0"/>
  <path fill="#ffffff" id="svg_14" d="m38.159188,31.740812c0,-0.4 -0.3,-0.8 -0.8,-0.8l-4,0c-0.4,0 -0.8,0.3 -0.8,0.8l0,4c0,0.4 0.3,0.8 0.8,0.8l4,0c0.4,0 0.8,-0.3 0.8,-0.8l0,-4zm-1.5,3.3l-2.5,0l0,-2.5l2.5,0l0,2.5z" class="st0"/>
  <path fill="#ffffff" id="svg_15" d="m46.018375,31.6c0,-0.4 -0.3,-0.8 -0.8,-0.8l-4,0c-0.4,0 -0.8,0.3 -0.8,0.8l0,4c0,0.4 0.3,0.8 0.8,0.8l4,0c0.4,0 0.8,-0.3 0.8,-0.8l0,-4zm-1.5,3.3l-2.5,0l0,-2.5l2.5,0l0,2.5z" class="st0"/>
  <path fill="#ffffff" id="svg_16" d="m54.018375,31.6c0,-0.4 -0.3,-0.8 -0.8,-0.8l-4,0c-0.4,0 -0.8,0.3 -0.8,0.8l0,4c0,0.4 0.3,0.8 0.8,0.8l4,0c0.4,0 0.8,-0.3 0.8,-0.8l0,-4zm-1.5,3.3l-2.5,0l0,-2.5l2.5,0l0,2.5z" class="st0"/>
  <path fill="#ffffff" id="svg_17" d="m37.218375,46.9l-4,0c-0.4,0 -0.8,0.3 -0.8,0.8l0,4c0,0.4 0.3,0.8 0.8,0.8l4,0c0.4,0 0.8,-0.3 0.8,-0.8l0,-4c0,-0.5 -0.4,-0.8 -0.8,-0.8zm-0.7,4l-2.5,0l0,-2.5l2.5,0l0,2.5z" class="st0"/>
  <path fill="#ffffff" id="svg_18" d="m45.359188,46.9l-4,0c-0.4,0 -0.8,0.3 -0.8,0.8l0,4c0,0.4 0.3,0.8 0.8,0.8l4,0c0.4,0 0.8,-0.3 0.8,-0.8l0,-4c0,-0.5 -0.4,-0.8 -0.8,-0.8zm-0.7,4l-2.5,0l0,-2.5l2.5,0l0,2.5z" class="st0"/>
  <path fill="#ffffff" id="svg_19" d="m53.359188,46.9l-4,0c-0.4,0 -0.8,0.3 -0.8,0.8l0,4c0,0.4 0.3,0.8 0.8,0.8l4,0c0.4,0 0.8,-0.3 0.8,-0.8l0,-4c0,-0.5 -0.4,-0.8 -0.8,-0.8zm-0.7,4l-2.5,0l0,-2.5l2.5,0l0,2.5z" class="st0"/>
  <path fill="#ffffff" id="svg_20" d="m38.018375,39.6c0,-0.4 -0.3,-0.8 -0.8,-0.8l-4,0c-0.4,0 -0.8,0.3 -0.8,0.8l0,4c0,0.4 0.3,0.8 0.8,0.8l4,0c0.4,0 0.8,-0.3 0.8,-0.8l0,-4zm-1.5,3.3l-2.5,0l0,-2.5l2.5,0l0,2.5z" class="st0"/>
  <path fill="#ffffff" id="svg_21" d="m46.018375,39.6c0,-0.4 -0.3,-0.8 -0.8,-0.8l-4,0c-0.4,0 -0.8,0.3 -0.8,0.8l0,4c0,0.4 0.3,0.8 0.8,0.8l4,0c0.4,0 0.8,-0.3 0.8,-0.8l0,-4zm-1.5,3.3l-2.5,0l0,-2.5l2.5,0l0,2.5z" class="st0"/>
  <path fill="#ffffff" id="svg_22" d="m54.018375,39.6c0,-0.4 -0.3,-0.8 -0.8,-0.8l-4,0c-0.4,0 -0.8,0.3 -0.8,0.8l0,4c0,0.4 0.3,0.8 0.8,0.8l4,0c0.4,0 0.8,-0.3 0.8,-0.8l0,-4zm-1.5,3.3l-2.5,0l0,-2.5l2.5,0l0,2.5z" class="st0"/>
 </g>
</svg>